<?xml version="1.0" encoding="utf-8"?>
<!-- Generator: Adobe Illustrator 26.3.1, SVG Export Plug-In . SVG Version: 6.00 Build 0)  -->
<svg version="1.1" id="Layer_1" xmlns="http://www.w3.org/2000/svg" xmlns:xlink="http://www.w3.org/1999/xlink" x="0px" y="0px"
	 viewBox="0 0 35.58 51.76" style="enable-background:new 0 0 35.58 51.76;" xml:space="preserve">
<style type="text/css">
	.st0{fill:url(#SVGID_1_);}
	.st1{fill:url(#SVGID_00000072265683211078240670000003746054476350348446_);}
	.st2{fill:url(#SVGID_00000031173872617418140540000014905188520680871296_);}
</style>
<g>
	<g>
		<linearGradient id="SVGID_1_" gradientUnits="userSpaceOnUse" x1="4.1273" y1="30.7797" x2="35.7936" y2="17.9857">
			<stop  offset="0" style="stop-color:#C37922"/>
			<stop  offset="0.0956" style="stop-color:#CD8A33"/>
			<stop  offset="0.2466" style="stop-color:#D79D46"/>
			<stop  offset="0.4199" style="stop-color:#DFAA54"/>
			<stop  offset="0.6326" style="stop-color:#E4B25D"/>
			<stop  offset="1" style="stop-color:#E5B45F"/>
		</linearGradient>
		<path class="st0" d="M17.65,0.89c-0.15,0-0.3-0.01-0.46-0.01c-0.15,0-0.3,0-0.46,0.01C4.92,1.2-2.75,14.23,2.06,25.67L16,50.17
			c0.54,0.95,3.04,0.95,3.58,0l13.94-24.5C38.33,14.23,29.47,1.2,17.65,0.89z M15.55,26.73c-4.6,0-8.33-3.95-8.33-8.82
			c0-4.87,3.73-8.82,8.33-8.82s8.33,3.95,8.33,8.82C23.88,22.78,20.15,26.73,15.55,26.73z"/>
		
			<linearGradient id="SVGID_00000182511972225214120210000001866124548579994046_" gradientUnits="userSpaceOnUse" x1="25.261" y1="50.8812" x2="25.261" y2="0.8812">
			<stop  offset="0" style="stop-color:#E5B45F"/>
			<stop  offset="0.2348" style="stop-color:#E1AD57"/>
			<stop  offset="0.5989" style="stop-color:#D59841"/>
			<stop  offset="1" style="stop-color:#C37922"/>
		</linearGradient>
		<path style="fill:url(#SVGID_00000182511972225214120210000001866124548579994046_);" d="M18.84,0.89c-0.15,0-1.49-0.01-1.65-0.01
			c-0.15,0-0.3,0-0.46,0.01c-0.4,0.01-0.8,0.04-1.19,0.08c11.14,1.12,18.14,13.66,13.49,24.7L15.98,48.62
			c-0.27,0.47-0.27,1.05,0,1.52L16,50.17c0.54,0.95,3.04,0.95,3.58,0l13.94-24.5C38.33,14.23,30.66,1.2,18.84,0.89z"/>
		
			<linearGradient id="SVGID_00000075879872020808633820000001203677168449455257_" gradientUnits="userSpaceOnUse" x1="12.1682" y1="26.7268" x2="12.1682" y2="9.0824">
			<stop  offset="0" style="stop-color:#E5B45F"/>
			<stop  offset="0.2357" style="stop-color:#E2AF5A"/>
			<stop  offset="0.5156" style="stop-color:#DAA24C"/>
			<stop  offset="0.8167" style="stop-color:#CD8B34"/>
			<stop  offset="1" style="stop-color:#C37922"/>
		</linearGradient>
		<path style="fill:url(#SVGID_00000075879872020808633820000001203677168449455257_);" d="M15.55,26.73c0.54,0,1.06-0.05,1.57-0.16
			c-3.85-0.78-6.77-4.36-6.77-8.67s2.91-7.89,6.77-8.67c-0.51-0.1-1.03-0.16-1.57-0.16c-4.6,0-8.33,3.95-8.33,8.82
			C7.22,22.78,10.95,26.73,15.55,26.73z"/>
	</g>
</g>
</svg>
